<svg width="33" height="21" viewBox="0 0 33 21" fill="none" xmlns="http://www.w3.org/2000/svg">
<g clip-path="url(#clip0_211_2522)">
<path d="M30.6245 2.48132C30.6245 2.50486 30.6245 2.53428 30.6184 2.55193C30.5877 2.78141 30.5877 3.0109 30.6061 3.24627C30.6184 3.30511 30.6306 3.36395 30.6797 3.41102C30.7594 3.49928 30.882 3.48163 30.9311 3.37572C30.9556 3.32276 30.9556 3.2698 30.9433 3.21684C30.882 2.99324 30.8697 2.75788 30.8636 2.52839C30.8636 2.51662 30.8636 2.49897 30.8636 2.48132C30.931 2.47543 30.9924 2.46955 31.0475 2.46955C31.0905 2.46367 31.1272 2.45778 31.1579 2.44013C31.2498 2.39306 31.2498 2.29303 31.1517 2.24595C31.115 2.2283 31.0659 2.22241 31.023 2.22241C30.8697 2.2283 30.7165 2.2283 30.5632 2.2283C30.508 2.2283 30.4528 2.23418 30.3976 2.24007C30.367 2.24595 30.3302 2.24595 30.3057 2.26361C30.2628 2.28125 30.2383 2.31068 30.2383 2.35186C30.2444 2.39306 30.2628 2.41659 30.3057 2.43425C30.3302 2.4519 30.3609 2.45778 30.3915 2.45778C30.4651 2.46367 30.5448 2.47543 30.6245 2.48132ZM32.3105 2.75199C32.3105 2.75788 32.3166 2.76376 32.3166 2.76376C32.3411 2.92263 32.3657 3.07562 32.384 3.22861C32.3902 3.28157 32.3963 3.32864 32.4331 3.36983C32.5128 3.46986 32.6354 3.45809 32.6906 3.35218C32.7151 3.29922 32.7212 3.24626 32.709 3.18742C32.6722 3.0109 32.6538 2.83437 32.617 2.66373C32.5925 2.55781 32.5619 2.45778 32.5312 2.36364C32.5128 2.30479 32.4699 2.2636 32.3963 2.25772C32.3228 2.24595 32.2676 2.28125 32.2369 2.33422C32.2001 2.38129 32.1695 2.42836 32.1449 2.48132C32.102 2.57547 32.0652 2.66961 32.0162 2.75788C32.01 2.78141 32.0039 2.79907 31.9917 2.81672C31.9856 2.80495 31.9794 2.79907 31.9794 2.79907C31.8997 2.65196 31.8261 2.50486 31.7465 2.36364C31.7342 2.35186 31.728 2.3401 31.7219 2.32833C31.6851 2.27537 31.6422 2.24595 31.5748 2.24595C31.5135 2.25183 31.4644 2.28714 31.4338 2.3401C31.4215 2.36364 31.4215 2.38129 31.4154 2.40482C31.3908 2.59312 31.3602 2.78141 31.3357 2.96971C31.3234 3.07562 31.3173 3.18154 31.3173 3.28745C31.3112 3.31099 31.3173 3.34041 31.3295 3.36395C31.3418 3.41102 31.3786 3.44045 31.4276 3.44633C31.4889 3.45221 31.5318 3.43456 31.5503 3.38748C31.5686 3.35218 31.5748 3.32276 31.5809 3.29334C31.6054 3.18742 31.6238 3.08739 31.6422 2.98736C31.6545 2.92852 31.6606 2.88144 31.679 2.81672C31.6913 2.84026 31.7035 2.85791 31.7158 2.87556C31.7709 2.94617 31.8261 3.01678 31.8936 3.07562C31.961 3.12269 32.0162 3.11681 32.0714 3.06385C32.0837 3.05208 32.0898 3.0462 32.102 3.03443C32.1572 2.95205 32.2247 2.86968 32.2798 2.78729C32.2921 2.77553 32.2982 2.76376 32.3105 2.75199Z" fill="#3A3B7B"/>
<path d="M18.1843 2.59686C18.1417 2.70869 18.1336 2.78925 18.1532 2.85622C18.175 2.94727 18.2314 2.97708 18.3079 2.95393C19.028 2.78302 20.6071 3.26813 21.1917 3.40333C21.3296 3.43172 21.4418 3.2609 21.3477 3.10774C21.2104 2.95942 19.632 2.3244 19.0298 2.28977C18.7937 2.27697 18.3717 2.21887 18.1843 2.59686Z" fill="#3A3B7B"/>
<path d="M24.3556 0.541231C24.4324 0.583745 24.4753 0.624301 24.4964 0.669614C24.528 0.729053 24.5113 0.770177 24.4583 0.791161C23.9823 1.01413 23.3489 1.97408 23.0932 2.30515C23.0313 2.38131 22.8883 2.33705 22.8667 2.21181C22.8711 2.07019 23.4326 1.02844 23.746 0.744706C23.8691 0.633926 24.0726 0.416563 24.3556 0.541231Z" fill="#3A3B7B"/>
<path d="M20.5648 0.0687224C20.657 0.00202726 20.7528 -0.0213447 20.8018 0.0219987C21.52 0.611499 21.9008 1.54502 22.1366 2.39964C22.1455 2.41956 22.1461 2.44813 22.139 2.47793C22.136 2.50341 22.1166 2.53032 22.0858 2.55115C22.0529 2.57413 22.0246 2.58114 22.0113 2.56133C21.6965 2.15042 19.8987 0.551638 20.5648 0.0687224Z" fill="#3A3B7B"/>
<path d="M5.35642 10.2891C5.52855 10.1661 5.71568 10.0637 5.91371 9.98424C6.12089 9.9274 6.34171 9.93681 6.54282 10.0111C6.74388 10.0854 6.91432 10.2206 7.02827 10.3961C7.1302 10.5712 7.17006 10.7733 7.14193 10.972C7.11379 11.1707 7.01915 11.3553 6.87222 11.4979C6.75832 11.6135 6.629 11.7142 6.48772 11.7975C5.858 12.1879 5.22266 12.557 4.58737 12.9474C4.45737 13.0451 4.31947 13.1328 4.17497 13.2095C3.95519 13.3147 3.70401 13.3429 3.46486 13.2892C3.22573 13.2355 3.01366 13.1032 2.86535 12.9153C2.75448 12.7823 2.66091 12.6368 2.58671 12.4821C1.98484 11.2679 1.36068 10.0591 0.781105 8.82355C0.513606 8.28871 0.296266 7.67359 0.0844979 7.07989C-0.00712287 6.90739 -0.0250143 6.70741 0.0346332 6.52243C0.0942807 6.33746 0.226761 6.18212 0.403894 6.08944C0.581028 5.99677 0.788835 5.97411 0.983126 6.02623C1.17742 6.07834 1.34286 6.20116 1.44427 6.36852C1.75598 6.76609 2.0319 7.18839 2.26906 7.63083C2.87092 8.70055 3.44493 9.77027 4.02451 10.8079C4.05825 10.8653 4.09547 10.9206 4.13596 10.9737C4.57219 10.7977 4.98249 10.5675 5.35642 10.2891Z" fill="#3A3B7B"/>
<path d="M11.5794 9.9159C10.203 11.4616 7.89579 11.0712 6.73664 9.08148C5.91184 7.66943 5.76696 5.33739 7.56144 3.8665C7.94463 3.55856 8.40283 3.34879 8.89332 3.25675C9.49472 3.174 10.108 3.27583 10.6455 3.54769C11.1829 3.81955 11.6171 4.24752 11.886 4.77044C12.8668 6.48203 12.7275 8.66428 11.5794 9.9159ZM11.0222 6.31086C10.8759 5.89026 10.5826 5.53118 10.1918 5.29459C9.97068 5.14333 9.702 5.06979 9.43102 5.08635C9.16 5.10291 8.90323 5.20857 8.70386 5.38552C7.90696 6.06482 7.73974 7.67479 8.31931 8.63221C8.3932 8.78833 8.50168 8.92706 8.63726 9.03873C8.77284 9.15039 8.93221 9.23228 9.1042 9.27862C9.27619 9.325 9.45663 9.33473 9.63297 9.30715C9.8093 9.27954 9.97718 9.21531 10.125 9.11892C10.5569 8.79746 10.8739 8.35483 11.0316 7.85257C11.1895 7.35026 11.1803 6.81326 11.0055 6.31623L11.0222 6.31086Z" fill="#3A3B7B"/>
<path d="M17.1965 6.98485C17.0556 7.01393 16.91 7.01568 16.7684 6.98994C16.6268 6.9642 16.4919 6.91158 16.3718 6.8351C16.2667 6.77739 16.1762 6.69807 16.1068 6.60278C16.0375 6.50749 15.9911 6.39867 15.9708 6.28407C15.9505 6.16952 15.957 6.05207 15.9897 5.94018C16.0224 5.82828 16.0806 5.72474 16.16 5.63697C16.2984 5.46062 16.4947 5.33437 16.7173 5.27863C17.2984 5.11677 17.8965 5.01809 18.5006 4.98446C18.6333 4.96964 18.7678 4.98042 18.8961 5.01616C19.0244 5.05195 19.144 5.11191 19.2478 5.19265C19.3516 5.27335 19.4376 5.37318 19.5007 5.48622C19.5638 5.59926 19.6027 5.72327 19.6152 5.85094C19.7893 6.47809 19.8084 7.13565 19.6709 7.77114C19.1694 9.82502 17.4418 10.531 15.5024 9.87315C14.958 9.69725 14.4807 9.3695 14.1315 8.93179C13.6657 8.40466 13.3355 7.77995 13.1674 7.10789C13.0312 6.50942 13.0461 5.88843 13.2109 5.29665C13.3757 4.70488 13.6856 4.15952 14.1148 3.70611C14.522 3.21331 15.0506 2.82548 15.6529 2.57753C16.0335 2.3762 16.4788 2.31896 16.9012 2.41707C16.997 2.44253 17.084 2.49212 17.1531 2.56071C17.2222 2.62931 17.271 2.7144 17.2943 2.80716C17.3176 2.89993 17.3146 2.99699 17.2857 3.08829C17.2567 3.17958 17.2029 3.26178 17.1297 3.32635C16.9905 3.44726 16.8393 3.55475 16.6783 3.64727C16.1828 3.9501 15.7517 4.34031 15.4077 4.79724C15.1822 5.09291 15.0269 5.43245 14.9527 5.7919C14.8786 6.15135 14.8874 6.52204 14.9786 6.87791C15.105 7.36311 15.3854 7.79862 15.781 8.12412C17.0071 9.19389 18.6009 8.16156 18.3223 6.70137C17.9155 6.79767 17.5588 6.89929 17.1965 6.98485Z" fill="#3A3B7B"/>
<path d="M24.687 10.0016C22.8758 11.0714 20.8139 10.0016 20.3625 7.75517C20.0337 6.15057 20.6578 3.9041 22.8424 3.04831C23.3072 2.87015 23.8114 2.80759 24.3081 2.86646C24.9048 2.97131 25.4523 3.25328 25.8732 3.67263C26.2941 4.09198 26.5673 4.62753 26.6542 5.20384C27.022 7.1133 26.1861 9.15117 24.687 10.0016ZM25.3168 6.40193C25.3162 5.95761 25.1524 5.52765 24.8542 5.18779C24.6948 4.97758 24.4644 4.82696 24.2022 4.76159C23.9399 4.69626 23.6623 4.72021 23.4164 4.82944C22.4356 5.23591 21.7445 6.71215 21.9953 7.79798C22.0145 7.96836 22.0722 8.1327 22.1644 8.27946C22.2566 8.42622 22.3811 8.55188 22.5292 8.64767C22.6773 8.74342 22.8454 8.807 23.0217 8.83393C23.1981 8.86082 23.3784 8.85045 23.5501 8.80351C24.0686 8.62969 24.5175 8.30483 24.8342 7.87427C25.1509 7.44371 25.3196 6.92897 25.3168 6.40193Z" fill="#3A3B7B"/>
<path d="M28.4854 10.4509C28.4581 10.6466 28.3508 10.824 28.1873 10.9438C28.0237 11.0637 27.8172 11.1163 27.6133 11.09C27.4093 11.0638 27.2246 10.9609 27.0997 10.8039C26.9747 10.6469 26.92 10.4487 26.9473 10.253C26.9747 10.0572 27.0819 9.8799 27.2454 9.76002C27.409 9.64014 27.6155 9.58756 27.8195 9.61381C28.0234 9.64005 28.2082 9.74295 28.3331 9.89994C28.458 10.0569 28.5128 10.2551 28.4854 10.4509ZM28.0006 3.23547C28.1066 3.08011 28.262 2.96179 28.4438 2.89818C28.6256 2.83456 28.824 2.82904 29.0093 2.88246C29.1977 2.9277 29.3641 3.03368 29.4808 3.18266C29.5974 3.33164 29.6572 3.51457 29.6502 3.70081C29.6256 3.99955 29.579 4.29625 29.5108 4.58868C29.3269 5.57821 29.1486 6.56769 28.9536 7.54653C28.8644 7.93699 28.7474 8.3114 28.6192 8.70718C28.5746 8.83091 28.5001 8.94271 28.4018 9.03346C28.3407 9.10172 28.2627 9.15407 28.175 9.18568C28.0872 9.21734 27.9926 9.2272 27.8998 9.2144C27.807 9.2016 27.7191 9.16655 27.6441 9.11251C27.5692 9.05842 27.5097 8.98708 27.4712 8.90509C27.4049 8.75801 27.3689 8.59996 27.3653 8.43976C27.3653 7.77651 27.3653 7.10794 27.4099 6.43933C27.4856 5.48517 27.6346 4.53766 27.8557 3.60453C27.8817 3.47952 27.9307 3.35996 28.0006 3.25152V3.23547Z" fill="#3A3B7B"/>
<path fill-rule="evenodd" clip-rule="evenodd" d="M3.00179 14.749C2.93599 14.8899 2.91794 15.0471 2.9501 15.1984C2.97149 15.3977 3.01847 15.5939 3.08998 15.7822C3.17926 16.0129 3.27915 16.241 3.40233 16.5222C3.43066 16.5868 3.46026 16.6544 3.49124 16.7254C3.65735 17.1063 3.86577 17.5931 4.14378 18.2975C4.22247 18.4976 4.29235 18.6994 4.36271 18.9025C4.39114 18.9846 4.41966 19.067 4.44886 19.1495C4.55353 19.4429 4.73364 19.7065 4.97236 19.9155C5.07373 20.0303 5.20819 20.114 5.35897 20.1558C5.51268 20.1985 5.67616 20.1958 5.82824 20.1481C5.98032 20.1003 6.11389 20.0097 6.21162 19.8881C6.30743 19.7689 6.3644 19.6252 6.37548 19.4751C6.43763 19.1827 6.41642 18.8795 6.31397 18.5976C6.15138 18.1295 5.96616 17.6607 5.75258 17.2022L5.7516 17.2002C5.40023 16.4828 5.04308 15.7705 4.66902 15.0578L4.66622 15.0528C4.55672 14.8671 4.41441 14.7011 4.24569 14.5623C4.13616 14.4384 3.98508 14.3548 3.81823 14.326C3.64783 14.2966 3.47208 14.3262 3.32237 14.4097C3.18074 14.4873 3.06847 14.6061 3.00179 14.749Z" fill="#3A3B7B"/>
<path fill-rule="evenodd" clip-rule="evenodd" d="M8.36855 12.9826C7.81763 12.8457 7.24226 12.8257 6.68255 12.9242C6.24902 12.9651 5.82265 13.0611 5.52658 13.2512C5.37599 13.348 5.25425 13.4722 5.18653 13.6301C5.11843 13.7889 5.10974 13.9705 5.16554 14.1728C5.26743 14.5434 5.39974 14.9037 5.53158 15.2629L5.55294 15.3211L5.55345 15.3224C5.95043 16.3658 6.35119 17.4057 6.7556 18.442C6.80275 18.6053 6.86945 18.7629 6.95432 18.9115L6.95591 18.9142C7.06803 19.0988 7.21183 19.264 7.38125 19.4026C7.46598 19.4789 7.57077 19.5316 7.68438 19.5552C7.79912 19.579 7.91844 19.5721 8.02934 19.5352C8.14029 19.4984 8.23853 19.433 8.3134 19.3462C8.38706 19.2608 8.43529 19.158 8.453 19.0485C8.5261 18.7511 8.50268 18.4394 8.38584 18.1551C8.34939 18.0595 8.32079 17.9617 8.29064 17.8588C8.2806 17.8245 8.27041 17.7896 8.25966 17.754C9.18536 17.4067 10.1703 16.9398 10.5167 15.8534C10.6523 15.478 10.6636 15.0715 10.549 14.6896C10.4343 14.3073 10.199 13.9684 9.87551 13.7197C9.43521 13.3715 8.92088 13.1199 8.36855 12.9826ZM6.84145 14.3151C6.85968 14.3101 6.87804 14.3054 6.89646 14.301C7.49912 14.2101 8.11571 14.3313 8.6327 14.6421C8.86054 14.7942 8.95388 14.9632 8.96991 15.1258C8.98645 15.2932 8.92303 15.4746 8.79563 15.649C8.55489 15.9784 8.11557 16.242 7.71873 16.2911C7.42944 15.6517 7.13565 14.9864 6.84145 14.3151Z" fill="#3A3B7B"/>
<path d="M12.0415 11.8121C12.6976 11.5213 13.5103 11.4711 14.1462 11.6756C14.3064 11.7203 14.4453 11.8172 14.5393 11.9495C14.6327 12.0811 14.6758 12.2396 14.6614 12.398C14.6604 12.5009 14.6341 12.6021 14.5846 12.6934C14.5343 12.7863 14.4613 12.8663 14.3719 12.9264C14.2826 12.9866 14.1794 13.0253 14.0712 13.0391C13.963 13.0529 13.8529 13.0416 13.7503 13.0059L13.7424 13.0032L13.7351 12.9995C13.6826 12.9731 13.6268 12.9532 13.5691 12.9403L13.5654 12.9395C13.1181 12.8255 12.6961 13.0144 12.5419 13.2466C12.4684 13.3573 12.4593 13.4691 12.5205 13.5707C12.5861 13.6796 12.7469 13.8018 13.0723 13.8889C13.1618 13.9124 13.2536 13.9352 13.3466 13.9583C13.604 14.0223 13.8714 14.0887 14.13 14.1808L14.131 14.1811C15.324 14.6168 15.7682 15.5191 15.6161 16.3677C15.4657 17.2069 14.7354 17.9707 13.6372 18.1509C13.2377 18.2359 12.8218 18.2193 12.4308 18.1028C12.0389 17.986 11.6856 17.7728 11.4061 17.4843L11.3988 17.4768C11.3106 17.3681 11.2512 17.2404 11.2249 17.1049C11.2007 16.9827 11.2135 16.8563 11.2616 16.7408C11.3095 16.6259 11.3904 16.5265 11.4949 16.454C11.6052 16.3719 11.7382 16.3226 11.8774 16.3124C12.0162 16.3021 12.1551 16.3311 12.2769 16.3956C12.3986 16.452 12.5118 16.524 12.6134 16.6096L12.6153 16.6112C12.7951 16.7689 13.0125 16.81 13.2211 16.772C13.4326 16.7333 13.6316 16.6132 13.7596 16.4538C13.8867 16.2954 13.9377 16.1072 13.8771 15.9245C13.8162 15.7405 13.6329 15.5343 13.2303 15.3619C13.1251 15.319 13.0159 15.2844 12.9024 15.2508C12.8718 15.2417 12.8407 15.2327 12.8092 15.2235C12.7252 15.199 12.6389 15.1738 12.5542 15.1461C12.4959 15.127 12.438 15.1089 12.3807 15.091C12.2241 15.042 12.0714 14.9943 11.9245 14.9303C11.6046 14.8258 11.3283 14.6251 11.1367 14.358C10.9442 14.0898 10.8474 13.7691 10.8606 13.4437C10.8616 12.6508 11.3819 12.1046 12.0415 11.8121Z" fill="#3A3B7B"/>
<path d="M20.3592 11.7277C20.2319 11.6681 20.0913 11.6398 19.9498 11.6453C19.8084 11.6509 19.6706 11.6902 19.5489 11.7597C19.428 11.8287 19.3268 11.9253 19.2543 12.041C19.1878 12.1384 19.1417 12.2473 19.1188 12.3617C19.0958 12.4759 19.0964 12.5934 19.1204 12.7074C19.1441 12.8539 19.1703 12.9964 19.1963 13.1369C19.2392 13.3695 19.281 13.5968 19.3086 13.8286L19.3096 13.8345C19.3724 14.198 19.4052 14.5656 19.4082 14.934L19.4085 14.9392C19.4299 15.337 19.2887 15.7271 19.015 16.0267L19.0107 16.032C18.9216 16.1415 18.8026 16.2251 18.6668 16.2734C18.5311 16.3217 18.3841 16.3329 18.2422 16.3055C18.1002 16.2782 17.969 16.2135 17.8632 16.1186C17.7574 16.0238 17.6811 15.9022 17.643 15.7682C17.5617 15.4858 17.5146 15.1952 17.5026 14.9024L17.6415 12.78C17.6436 12.7523 17.6459 12.7239 17.6483 12.6951C17.6536 12.6307 17.659 12.565 17.6613 12.5038C17.6645 12.4137 17.6617 12.321 17.6399 12.2333C17.6175 12.1437 17.5749 12.0584 17.4994 11.9857C17.4246 11.9139 17.3236 11.8608 17.1966 11.8247C16.9669 11.7609 16.7727 11.7629 16.6108 11.8288C16.4489 11.8948 16.3379 12.0172 16.2594 12.1586C16.1815 12.2988 16.1315 12.4648 16.0936 12.631C16.0655 12.7544 16.0429 12.8839 16.0215 13.0072C16.0141 13.0496 16.0068 13.0913 15.9995 13.1319L15.9993 13.133C15.8845 13.8091 15.8503 14.4955 15.8974 15.179C15.9062 15.5483 15.9865 15.9129 16.1342 16.2541C16.3008 16.6944 16.6026 17.0758 16.9997 17.3481C17.3976 17.6209 17.8725 17.7712 18.3615 17.7792C18.8504 17.7871 19.3304 17.6523 19.7377 17.3926C20.1444 17.1332 20.4596 16.7615 20.6416 16.3267C20.8962 15.7727 21.0157 15.1702 20.991 14.5652C20.9761 14.1235 20.951 13.6784 20.9261 13.2355C20.9139 13.0183 20.9017 12.8015 20.8907 12.5861C20.8852 12.3701 20.811 12.1608 20.678 11.9864C20.5957 11.8762 20.4861 11.7873 20.3592 11.7277Z" fill="#3A3B7B"/>
<path d="M24.8615 15.0557C24.8486 15.0714 24.835 15.0877 24.8208 15.1046C24.7174 14.5317 24.6215 13.959 24.5254 13.3854C24.491 13.1796 24.4563 12.9729 24.4215 12.7668L24.4176 12.7438L24.4049 12.724C24.3809 12.6866 24.3785 12.6499 24.3785 12.5718V12.5627L24.3771 12.5538C24.3511 12.3923 24.275 12.2421 24.1588 12.1227C24.0429 12.0037 23.8923 11.9208 23.7267 11.8848C23.5614 11.8457 23.3877 11.8543 23.2275 11.9097C23.0676 11.9649 22.9283 12.064 22.8269 12.1948C22.7426 12.2951 22.6734 12.4064 22.6217 12.5253C22.5041 12.7815 22.3856 13.0383 22.2667 13.2958L22.2646 13.3003C21.9678 13.9432 21.6689 14.5904 21.3788 15.2426L21.3779 15.2448C21.1998 15.6677 21.0528 16.1134 20.9063 16.5576C20.877 16.6463 20.8477 16.7349 20.8183 16.8233C20.7654 16.9635 20.7422 17.1125 20.7502 17.2613C20.7405 17.3946 20.7738 17.5276 20.8455 17.6422C20.9186 17.7592 21.0281 17.8512 21.1585 17.9054C21.2967 17.9636 21.4513 17.9759 21.5977 17.9405C21.7438 17.9051 21.8736 17.8242 21.9665 17.7104C22.0852 17.5703 22.1873 17.4174 22.2706 17.2555C22.5164 16.7729 22.7513 16.2845 22.9851 15.7982C23.0756 15.6101 23.1635 15.4417 23.2635 15.2582C23.2704 15.2808 23.2774 15.3029 23.2847 15.325C23.3895 15.7679 23.5664 16.1922 23.8089 16.5823C23.8548 16.6649 23.9188 16.7371 23.9964 16.7939C24.0749 16.8515 24.1655 16.8918 24.2619 16.9124C24.3583 16.9329 24.4583 16.9329 24.5547 16.9126C24.651 16.8923 24.7419 16.8519 24.8205 16.7947L24.976 16.683L26.1829 15.7073L26.1115 16.1438C26.0135 16.7438 25.9163 17.3389 25.813 17.934C25.7455 18.1978 25.7456 18.4734 25.8133 18.7371C25.8427 18.8855 25.9174 19.0221 26.0281 19.1296C26.1397 19.2379 26.2826 19.3115 26.4384 19.3408C26.5941 19.3701 26.7554 19.3539 26.9014 19.2941C27.0452 19.2353 27.1676 19.1368 27.2531 19.0113C27.4521 18.7744 27.576 18.4875 27.61 18.1848C27.6612 17.7575 27.7191 17.3242 27.777 16.8912C27.8437 16.392 27.9104 15.8929 27.9667 15.4034L27.9669 15.4019C28.0211 14.8661 28.0473 14.3281 28.0455 13.7898C28.0574 13.6197 28.0132 13.4502 27.9192 13.3054C27.8248 13.16 27.6851 13.047 27.5199 12.9824C27.3481 12.9074 27.1558 12.8874 26.9713 12.9253C26.7879 12.9629 26.6219 13.0557 26.4974 13.19C26.2748 13.3876 26.066 13.5991 25.8723 13.823L25.871 13.8245C25.6595 14.0775 25.4495 14.3353 25.2408 14.5916C25.1139 14.7473 24.9874 14.9027 24.8615 15.0557Z" fill="#3A3B7B"/>
</g>
<defs>
<clipPath id="clip0_211_2522">
<rect width="32.7153" height="20.186" fill="white"/>
</clipPath>
</defs>
</svg>
