<svg width="805" height="69" viewBox="0 0 805 69" fill="none" xmlns="http://www.w3.org/2000/svg">
<g clip-path="url(#clip0_211_2045)">
<path fill-rule="evenodd" clip-rule="evenodd" d="M9.74487 20.1858C13.5891 20.1858 16.7056 23.3022 16.7056 27.1465V20.1858H23.6663C27.5105 20.1858 30.627 23.3022 30.627 27.1465C30.627 30.9907 27.5105 34.1072 23.6663 34.1072C27.5105 34.1072 30.627 37.2236 30.627 41.0679C30.627 42.9767 29.8586 44.7061 28.6143 45.9636L28.5882 45.9899L28.5651 46.0128C27.3073 47.2589 25.5767 48.0286 23.6663 48.0286C21.7688 48.0286 20.0487 47.2694 18.7931 46.0382C18.7768 46.0222 18.7605 46.006 18.7443 45.9899C18.729 45.9746 18.7139 45.9593 18.6988 45.9439C17.466 44.6881 16.7056 42.9668 16.7056 41.0679C16.7056 44.9121 13.5891 48.0286 9.74487 48.0286C5.90059 48.0286 2.78418 44.9121 2.78418 41.0679V34.1072H9.74487C5.90059 34.1072 2.78418 30.9907 2.78418 27.1465C2.78418 23.3022 5.90059 20.1858 9.74487 20.1858ZM15.3134 27.1465C15.3134 30.2219 12.8203 32.715 9.74487 32.715V21.5779C12.8203 21.5779 15.3134 24.0711 15.3134 27.1465ZM29.2348 41.0679C29.2348 37.9924 26.7417 35.4993 23.6663 35.4993C20.5908 35.4993 18.0977 37.9924 18.0977 41.0679H29.2348ZM4.17632 35.4993V41.0679C4.17632 44.1433 6.66944 46.6364 9.74487 46.6364C12.8203 46.6364 15.3134 44.1433 15.3134 41.0679V35.4993H4.17632ZM18.0977 32.715V21.5779H23.6663C26.7417 21.5779 29.2348 24.0711 29.2348 27.1465C29.2348 30.2219 26.7417 32.715 23.6663 32.715H18.0977Z" fill="#263238"/>
</g>
<g clip-path="url(#clip1_211_2045)">
<path fill-rule="evenodd" clip-rule="evenodd" d="M137.812 27.1197L130.861 34.0006C132.251 35.3769 133.839 36.5369 135.571 37.4443C136.05 38.7011 136.8 39.8798 137.822 40.8913C141.666 44.6969 147.899 44.6969 151.743 40.8913C152.765 39.8798 153.515 38.7011 153.994 37.4443C155.725 36.5369 157.313 35.3769 158.704 34.0006L151.758 27.1253C151.753 27.1201 151.748 27.115 151.743 27.1098C147.899 23.3042 141.666 23.3042 137.822 27.1098C137.818 27.1131 137.815 27.1164 137.812 27.1197ZM151.078 38.6858C149.052 39.3625 146.926 39.7091 144.782 39.7091C142.639 39.7091 140.512 39.3625 138.487 38.6858C138.706 38.974 138.948 39.2506 139.214 39.5132C142.289 42.5577 147.275 42.5577 150.351 39.5132C150.616 39.2506 150.858 38.974 151.078 38.6858ZM139.356 28.3502C139.879 28.6917 140.434 28.984 141.015 29.2223C142.209 29.712 143.489 29.9641 144.782 29.9641C146.075 29.9641 147.355 29.712 148.549 29.2223C149.13 28.984 149.686 28.6917 150.208 28.3502C147.171 25.4894 142.393 25.4894 139.356 28.3502Z" fill="#3B4158"/>
</g>
<g clip-path="url(#clip2_211_2045)">
<path d="M292.346 30.9864C292.35 30.9574 292.35 30.928 292.346 30.899C292.35 30.8753 292.35 30.8512 292.346 30.8275L292.063 28.7862C292.022 28.542 291.912 28.3137 291.747 28.1269L291.698 28.0713L291.609 27.984L286.699 23.8378L286.837 23.9728C286.724 23.8406 286.583 23.7349 286.423 23.6634C286.263 23.592 286.089 23.5565 285.913 23.5598H284.423C284.18 23.5551 283.943 23.6306 283.75 23.7742C283.547 23.6315 283.303 23.5563 283.053 23.5598H281.563C281.367 23.5567 281.174 23.6042 281.003 23.6977C280.833 23.7911 280.69 23.9272 280.59 24.0919C280.436 24.3273 280.378 24.6109 280.428 24.8862L280.615 26.173C280.491 26.1044 280.351 26.0688 280.21 26.0697H272.991C272.732 26.0713 272.479 26.1458 272.261 26.2842C272.051 26.413 271.883 26.5975 271.775 26.8164L271.216 26.3477C270.996 26.1481 270.706 26.04 270.406 26.0459H259.08C258.82 26.0505 258.566 26.1217 258.342 26.2524C258.037 26.4276 257.813 26.7125 257.718 27.0467L254.121 38.8419C254.054 39.0363 254.047 39.2459 254.102 39.4439C254.157 39.642 254.271 39.8196 254.429 39.9539C254.47 39.9882 254.514 40.02 254.559 40.0492C254.559 40.0492 254.486 40.0015 254.445 39.9619L259.355 44.116C259.563 44.3035 259.834 44.4082 260.117 44.4099H271.532C271.793 44.4032 272.047 44.3293 272.27 44.1954C272.395 44.1281 272.508 44.0393 272.602 43.9333L272.642 43.8777L272.707 43.7983L272.756 43.7109L273.29 44.1637C273.495 44.3437 273.761 44.4427 274.036 44.4417H285.476C285.736 44.4331 285.99 44.3593 286.213 44.2272C286.336 44.1557 286.448 44.0674 286.545 43.9651L286.586 43.9095L286.651 43.8301C286.685 43.7798 286.715 43.7267 286.74 43.6712C286.766 43.623 286.788 43.5725 286.804 43.5203L290.086 32.7497V32.6544C290.09 32.6174 290.09 32.5802 290.086 32.5432V32.4717C290.09 32.448 290.09 32.4239 290.086 32.4002C290.089 32.35 290.089 32.2996 290.086 32.2493H291.139C291.231 32.2575 291.323 32.2575 291.414 32.2493H291.487C291.547 32.232 291.604 32.2079 291.658 32.1778H291.739L291.884 32.0666L291.949 32.019L292.063 31.876V31.8284L292.144 31.6933C292.139 31.667 292.139 31.6402 292.144 31.6139C292.139 31.601 292.139 31.5871 292.144 31.5742C292.161 31.5276 292.174 31.4798 292.184 31.4312C292.18 31.4155 292.18 31.3992 292.184 31.3835C292.18 31.3599 292.18 31.3357 292.184 31.312C292.184 31.312 292.346 31.0023 292.346 30.9864Z" fill="black"/>
<path d="M270.738 26.9514C270.781 26.9896 270.811 27.0397 270.824 27.0951C270.837 27.1505 270.833 27.2085 270.811 27.2612L267.222 39.0485C267.177 39.1771 267.084 39.2847 266.963 39.3503C266.864 39.4152 266.749 39.4535 266.63 39.4615H255.223C255.125 39.4569 255.033 39.4173 254.964 39.3503C254.922 39.3128 254.893 39.264 254.88 39.2103C254.867 39.1565 254.871 39.1002 254.891 39.0485L258.488 27.2612C258.529 27.1309 258.619 27.0204 258.739 26.9514C258.84 26.8912 258.954 26.8558 259.071 26.8482H270.479C270.575 26.8491 270.668 26.886 270.738 26.9514ZM264.783 36.6735L266.93 29.6361H260.919L258.78 36.6735H264.783ZM281.627 27.0706C281.666 27.1149 281.715 27.1501 281.769 27.1735C281.824 27.1968 281.883 27.2078 281.943 27.2056H283.426C283.482 27.2061 283.538 27.1926 283.588 27.1662C283.637 27.1398 283.679 27.1014 283.709 27.0547C283.736 27.0182 283.754 26.9769 283.764 26.9332C283.774 26.8896 283.774 26.8444 283.766 26.8005L283.474 24.7036C283.447 24.6065 283.397 24.5169 283.329 24.4415C283.29 24.3971 283.241 24.362 283.186 24.3386C283.132 24.3152 283.072 24.3042 283.013 24.3064H281.53C281.473 24.3059 281.418 24.3195 281.368 24.3459C281.319 24.3723 281.277 24.4107 281.246 24.4574C281.19 24.5686 281.165 24.64 281.19 24.7036L281.489 26.8005C281.505 26.9026 281.553 26.9972 281.627 27.0706ZM286.334 24.6877C286.307 24.5906 286.257 24.501 286.189 24.4256C286.151 24.3814 286.104 24.3462 286.051 24.3228C285.997 24.2994 285.939 24.2884 285.881 24.2906H284.39C284.334 24.289 284.279 24.3022 284.231 24.3288C284.182 24.3553 284.142 24.3943 284.114 24.4415C284.061 24.5119 284.037 24.6005 284.05 24.6877L284.349 26.7846C284.368 26.8856 284.416 26.9793 284.487 27.0547C284.527 27.0982 284.576 27.1327 284.63 27.156C284.685 27.1793 284.744 27.1908 284.803 27.1897H286.294C286.349 27.1904 286.404 27.1769 286.452 27.1504C286.501 27.1239 286.541 27.0854 286.569 27.0388C286.598 27.0033 286.617 26.962 286.627 26.918C286.637 26.874 286.637 26.8285 286.626 26.7846L286.334 24.6877ZM280.323 27.8649L280.177 26.8323H272.99C272.878 26.8384 272.768 26.874 272.674 26.9355C272.615 26.9674 272.563 27.0117 272.522 27.0651C272.482 27.1186 272.454 27.1801 272.44 27.2453L271.84 29.2151C271.816 29.2644 271.808 29.3196 271.817 29.3735C271.825 29.4273 271.85 29.4774 271.889 29.517C271.957 29.5799 272.046 29.6166 272.14 29.6202H280.874L278.727 36.6577H270.017C269.905 36.6602 269.795 36.6932 269.701 36.7529C269.586 36.8243 269.503 36.9346 269.466 37.0627L268.858 39.0326C268.839 39.0831 268.833 39.138 268.843 39.1913C268.853 39.2446 268.878 39.2941 268.915 39.3344C268.981 39.4016 269.071 39.4414 269.166 39.4456H280.606C280.725 39.4356 280.839 39.3974 280.938 39.3344C281.058 39.2685 281.148 39.1607 281.19 39.0326L284.479 28.262H280.776C280.718 28.2631 280.659 28.2524 280.605 28.2306C280.551 28.2087 280.501 28.1762 280.46 28.1349C280.393 28.0629 280.346 27.9755 280.323 27.8807V27.8649Z" fill="white"/>
</g>
<g clip-path="url(#clip3_211_2045)">
<path d="M415.551 26.7369C415.551 26.7605 415.551 26.7899 415.545 26.8075C415.514 27.037 415.514 27.2665 415.533 27.5019C415.545 27.5607 415.557 27.6196 415.606 27.6666C415.686 27.7549 415.809 27.7372 415.858 27.6313C415.882 27.5784 415.882 27.5254 415.87 27.4725C415.809 27.2489 415.796 27.0135 415.79 26.784C415.79 26.7722 415.79 26.7546 415.79 26.7369C415.858 26.731 415.919 26.7252 415.974 26.7252C416.017 26.7193 416.054 26.7134 416.085 26.6957C416.177 26.6487 416.177 26.5486 416.078 26.5016C416.042 26.4839 415.993 26.478 415.95 26.478C415.796 26.4839 415.643 26.4839 415.49 26.4839C415.435 26.4839 415.38 26.4898 415.324 26.4957C415.294 26.5016 415.257 26.5016 415.232 26.5192C415.19 26.5369 415.165 26.5663 415.165 26.6075C415.171 26.6487 415.19 26.6722 415.232 26.6899C415.257 26.7075 415.288 26.7134 415.318 26.7134C415.392 26.7193 415.472 26.731 415.551 26.7369ZM417.237 27.0076C417.237 27.0135 417.243 27.0194 417.243 27.0194C417.268 27.1782 417.292 27.3312 417.311 27.4842C417.317 27.5372 417.323 27.5843 417.36 27.6254C417.44 27.7255 417.562 27.7137 417.617 27.6078C417.642 27.5548 417.648 27.5019 417.636 27.443C417.599 27.2665 417.581 27.09 417.544 26.9193C417.519 26.8134 417.489 26.7134 417.458 26.6193C417.44 26.5604 417.397 26.5192 417.323 26.5133C417.25 26.5016 417.194 26.5369 417.164 26.5898C417.127 26.6369 417.096 26.684 417.072 26.7369C417.029 26.8311 416.992 26.9252 416.943 27.0135C416.937 27.037 416.931 27.0547 416.918 27.0723C416.912 27.0606 416.906 27.0547 416.906 27.0547C416.826 26.9076 416.753 26.7605 416.673 26.6193C416.661 26.6075 416.655 26.5957 416.649 26.5839C416.612 26.531 416.569 26.5016 416.502 26.5016C416.44 26.5074 416.391 26.5428 416.361 26.5957C416.348 26.6193 416.348 26.6369 416.342 26.6604C416.318 26.8487 416.287 27.037 416.262 27.2253C416.25 27.3312 416.244 27.4372 416.244 27.5431C416.238 27.5666 416.244 27.596 416.256 27.6196C416.269 27.6666 416.305 27.6961 416.354 27.7019C416.416 27.7078 416.459 27.6902 416.477 27.6431C416.495 27.6078 416.502 27.5784 416.508 27.549C416.532 27.443 416.551 27.343 416.569 27.243C416.581 27.1841 416.587 27.1371 416.606 27.0723C416.618 27.0959 416.63 27.1135 416.643 27.1312C416.698 27.2018 416.753 27.2724 416.82 27.3312C416.888 27.3783 416.943 27.3724 416.998 27.3195C417.01 27.3077 417.017 27.3018 417.029 27.29C417.084 27.2077 417.151 27.1253 417.207 27.0429C417.219 27.0311 417.225 27.0194 417.237 27.0076Z" fill="#3A3B7B"/>
<path d="M403.111 26.8526C403.068 26.9644 403.06 27.045 403.08 27.112C403.102 27.203 403.158 27.2328 403.235 27.2097C403.955 27.0388 405.534 27.5239 406.118 27.6591C406.256 27.6875 406.369 27.5166 406.274 27.3635C406.137 27.2152 404.559 26.5801 403.957 26.5455C403.72 26.5327 403.298 26.4746 403.111 26.8526Z" fill="#3A3B7B"/>
<path d="M409.282 24.797C409.359 24.8395 409.402 24.88 409.423 24.9254C409.455 24.9848 409.438 25.0259 409.385 25.0469C408.909 25.2699 408.276 26.2298 408.02 26.5609C407.958 26.637 407.815 26.5928 407.793 26.4675C407.798 26.3259 408.359 25.2842 408.673 25.0004C408.796 24.8897 408.999 24.6723 409.282 24.797Z" fill="#3A3B7B"/>
<path d="M405.492 24.3243C405.584 24.2576 405.68 24.2343 405.729 24.2776C406.447 24.8671 406.828 25.8006 407.063 26.6553C407.072 26.6752 407.073 26.7037 407.066 26.7335C407.063 26.759 407.043 26.7859 407.013 26.8068C406.98 26.8297 406.951 26.8368 406.938 26.8169C406.623 26.406 404.825 24.8073 405.492 24.3243Z" fill="#3A3B7B"/>
<path d="M390.283 34.5447C390.455 34.4217 390.642 34.3193 390.84 34.2399C391.048 34.183 391.268 34.1924 391.47 34.2667C391.671 34.3411 391.841 34.4762 391.955 34.6517C392.057 34.8268 392.097 35.0289 392.069 35.2276C392.041 35.4263 391.946 35.6109 391.799 35.7535C391.685 35.8691 391.556 35.9698 391.414 36.0531C390.785 36.4435 390.149 36.8126 389.514 37.203C389.384 37.3007 389.246 37.3884 389.102 37.4651C388.882 37.5703 388.631 37.5985 388.392 37.5448C388.152 37.4911 387.94 37.3588 387.792 37.171C387.681 37.0379 387.588 36.8924 387.513 36.7377C386.912 35.5236 386.287 34.3147 385.708 33.0792C385.44 32.5443 385.223 31.9292 385.011 31.3355C384.92 31.163 384.902 30.963 384.961 30.7781C385.021 30.5931 385.154 30.4377 385.331 30.3451C385.508 30.2524 385.716 30.2297 385.91 30.2818C386.104 30.334 386.27 30.4568 386.371 30.6241C386.683 31.0217 386.959 31.444 387.196 31.8864C387.798 32.9562 388.372 34.0259 388.951 35.0635C388.985 35.1209 389.022 35.1762 389.063 35.2293C389.499 35.0533 389.909 34.8231 390.283 34.5447Z" fill="#3A3B7B"/>
<path d="M396.506 34.1715C395.13 35.7173 392.823 35.3268 391.663 33.3371C390.839 31.925 390.694 29.593 392.488 28.1221C392.871 27.8142 393.33 27.6044 393.82 27.5124C394.421 27.4296 395.035 27.5314 395.572 27.8033C396.11 28.0752 396.544 28.5031 396.813 29.0261C397.794 30.7376 397.654 32.9199 396.506 34.1715ZM395.949 30.5665C395.803 30.1459 395.509 29.7868 395.119 29.5502C394.897 29.3989 394.629 29.3254 394.358 29.342C394.087 29.3585 393.83 29.4642 393.631 29.6411C392.834 30.3204 392.666 31.9304 393.246 32.8878C393.32 33.0439 393.428 33.1827 393.564 33.2943C393.7 33.406 393.859 33.4879 394.031 33.5342C394.203 33.5806 394.383 33.5903 394.56 33.5628C394.736 33.5352 394.904 33.4709 395.052 33.3745C395.484 33.0531 395.801 32.6104 395.958 32.1082C396.116 31.6059 396.107 31.0689 395.932 30.5718L395.949 30.5665Z" fill="#3A3B7B"/>
<path d="M402.123 31.2406C401.982 31.2697 401.837 31.2714 401.695 31.2457C401.554 31.2199 401.419 31.1673 401.299 31.0908C401.193 31.0331 401.103 30.9538 401.034 30.8585C400.964 30.7632 400.918 30.6544 400.898 30.5398C400.877 30.4253 400.884 30.3078 400.916 30.1959C400.949 30.084 401.007 29.9805 401.087 29.8927C401.225 29.7164 401.421 29.5901 401.644 29.5344C402.225 29.3725 402.823 29.2738 403.427 29.2402C403.56 29.2254 403.695 29.2362 403.823 29.2719C403.951 29.3077 404.071 29.3676 404.175 29.4484C404.278 29.5291 404.364 29.6289 404.427 29.742C404.491 29.855 404.529 29.979 404.542 30.1067C404.716 30.7338 404.735 31.3914 404.598 32.0269C404.096 34.0808 402.369 34.7868 400.429 34.1289C399.885 33.953 399.407 33.6252 399.058 33.1875C398.592 32.6604 398.262 32.0357 398.094 31.3636C397.958 30.7652 397.973 30.1442 398.138 29.5524C398.302 28.9606 398.612 28.4153 399.042 27.9618C399.449 27.469 399.977 27.0812 400.58 26.8333C400.96 26.6319 401.406 26.5747 401.828 26.6728C401.924 26.6983 402.011 26.7479 402.08 26.8164C402.149 26.885 402.198 26.9701 402.221 27.0629C402.244 27.1557 402.241 27.2527 402.212 27.344C402.183 27.4353 402.13 27.5175 402.056 27.5821C401.917 27.703 401.766 27.8105 401.605 27.903C401.11 28.2058 400.678 28.596 400.334 29.053C400.109 29.3487 399.954 29.6882 399.879 30.0476C399.805 30.4071 399.814 30.7778 399.905 31.1336C400.032 31.6188 400.312 32.0544 400.708 32.3799C401.934 33.4496 403.528 32.4173 403.249 30.9571C402.842 31.0534 402.486 31.155 402.123 31.2406Z" fill="#3A3B7B"/>
<path d="M409.614 34.2572C407.803 35.327 405.741 34.2572 405.289 32.0108C404.96 30.4062 405.585 28.1597 407.769 27.3039C408.234 27.1258 408.738 27.0632 409.235 27.1221C409.832 27.2269 410.379 27.5089 410.8 27.9282C411.221 28.3476 411.494 28.8831 411.581 29.4595C411.949 31.3689 411.113 33.4068 409.614 34.2572ZM410.244 30.6575C410.243 30.2132 410.079 29.7833 409.781 29.4434C409.622 29.2332 409.391 29.0826 409.129 29.0172C408.867 28.9519 408.589 28.9758 408.343 29.0851C407.362 29.4915 406.671 30.9678 406.922 32.0536C406.941 32.224 406.999 32.3883 407.091 32.5351C407.183 32.6818 407.308 32.8075 407.456 32.9033C407.604 32.999 407.772 33.0626 407.948 33.0895C408.125 33.1164 408.305 33.1061 408.477 33.0591C408.995 32.8853 409.444 32.5604 409.761 32.1299C410.078 31.6993 410.246 31.1846 410.244 30.6575Z" fill="#3A3B7B"/>
<path d="M413.412 34.7066C413.385 34.9024 413.278 35.0797 413.114 35.1996C412.95 35.3194 412.744 35.372 412.54 35.3458C412.336 35.3195 412.151 35.2166 412.026 35.0596C411.902 34.9027 411.847 34.7045 411.874 34.5087C411.901 34.3129 412.009 34.1356 412.172 34.0158C412.336 33.8959 412.542 33.8433 412.746 33.8695C412.95 33.8958 413.135 33.9987 413.26 34.1557C413.385 34.3127 413.44 34.5109 413.412 34.7066ZM412.927 27.4912C413.033 27.3358 413.189 27.2175 413.371 27.1539C413.552 27.0903 413.751 27.0848 413.936 27.1382C414.124 27.1834 414.291 27.2894 414.408 27.4384C414.524 27.5874 414.584 27.7703 414.577 27.9565C414.552 28.2553 414.506 28.552 414.438 28.8444C414.254 29.8339 414.075 30.8234 413.88 31.8023C413.791 32.1927 413.674 32.5671 413.546 32.9629C413.501 33.0866 413.427 33.1985 413.329 33.2892C413.268 33.3575 413.19 33.4098 413.102 33.4414C413.014 33.4731 412.919 33.4829 412.827 33.4701C412.734 33.4573 412.646 33.4223 412.571 33.3682C412.496 33.3142 412.436 33.2428 412.398 33.1608C412.332 33.0137 412.296 32.8557 412.292 32.6955C412.292 32.0323 412.292 31.3637 412.337 30.6951C412.412 29.7409 412.561 28.7934 412.782 27.8603C412.808 27.7353 412.857 27.6157 412.927 27.5073V27.4912Z" fill="#3A3B7B"/>
<path fill-rule="evenodd" clip-rule="evenodd" d="M387.929 39.0046C387.863 39.1455 387.845 39.3027 387.877 39.454C387.898 39.6534 387.945 39.8495 388.017 40.0379C388.106 40.2685 388.206 40.4966 388.329 40.7778C388.357 40.8425 388.387 40.91 388.418 40.9811C388.584 41.3619 388.793 41.8487 389.071 42.5531C389.149 42.7532 389.219 42.955 389.289 43.1582C389.318 43.2402 389.346 43.3226 389.376 43.4051C389.48 43.6985 389.66 43.9622 389.899 44.1711C390 44.2859 390.135 44.3696 390.286 44.4114C390.439 44.4541 390.603 44.4514 390.755 44.4037C390.907 44.3559 391.041 44.2654 391.138 44.1437C391.234 44.0245 391.291 43.8808 391.302 43.7307C391.364 43.4383 391.343 43.1351 391.241 42.8532C391.078 42.3851 390.893 41.9163 390.679 41.4578L390.678 41.4558C390.327 40.7385 389.97 40.0261 389.596 39.3134L389.593 39.3084C389.483 39.1227 389.341 38.9568 389.172 38.8179C389.063 38.694 388.912 38.6104 388.745 38.5816C388.575 38.5522 388.399 38.5819 388.249 38.6653C388.107 38.7429 387.995 38.8617 387.929 39.0046Z" fill="#3A3B7B"/>
<path fill-rule="evenodd" clip-rule="evenodd" d="M393.295 37.2381C392.744 37.1012 392.169 37.0812 391.609 37.1797C391.176 37.2206 390.749 37.3166 390.453 37.5067C390.303 37.6035 390.181 37.7277 390.113 37.8856C390.045 38.0444 390.036 38.226 390.092 38.4283C390.194 38.7989 390.326 39.1592 390.458 39.5184L390.48 39.5766L390.48 39.5779C390.877 40.6213 391.278 41.6612 391.682 42.6975C391.73 42.8608 391.796 43.0184 391.881 43.167L391.883 43.1697C391.995 43.3543 392.139 43.5194 392.308 43.6581C392.393 43.7344 392.498 43.7871 392.611 43.8107C392.726 43.8345 392.845 43.8276 392.956 43.7907C393.067 43.7539 393.165 43.6885 393.24 43.6017C393.314 43.5163 393.362 43.4135 393.38 43.304C393.453 43.0066 393.429 42.6949 393.313 42.4106C393.276 42.315 393.248 42.2172 393.217 42.1143C393.207 42.08 393.197 42.0451 393.186 42.0095C394.112 41.6622 395.097 41.1953 395.443 40.1089C395.579 39.7335 395.59 39.3269 395.476 38.9451C395.361 38.5628 395.126 38.2239 394.802 37.9752C394.362 37.627 393.848 37.3754 393.295 37.2381ZM391.768 38.5706C391.786 38.5656 391.805 38.5609 391.823 38.5565C392.426 38.4656 393.042 38.5868 393.559 38.8976C393.787 39.0497 393.881 39.2187 393.897 39.3813C393.913 39.5487 393.85 39.7301 393.722 39.9045C393.482 40.2339 393.042 40.4975 392.645 40.5466C392.356 39.9072 392.062 39.2419 391.768 38.5706Z" fill="#3A3B7B"/>
<path d="M396.968 36.0677C397.624 35.7769 398.437 35.7267 399.073 35.9312C399.233 35.9759 399.372 36.0728 399.466 36.2051C399.559 36.3367 399.603 36.4952 399.588 36.6536C399.587 36.7565 399.561 36.8577 399.511 36.949C399.461 37.0419 399.388 37.1219 399.299 37.1821C399.209 37.2422 399.106 37.2809 398.998 37.2947C398.89 37.3085 398.78 37.2972 398.677 37.2615L398.669 37.2588L398.662 37.2551C398.609 37.2287 398.554 37.2089 398.496 37.1959L398.492 37.1951C398.045 37.0811 397.623 37.2701 397.469 37.5022C397.395 37.6129 397.386 37.7247 397.447 37.8264C397.513 37.9352 397.674 38.0574 397.999 38.1445C398.089 38.1681 398.18 38.1908 398.273 38.2139C398.531 38.2779 398.798 38.3443 399.057 38.4364L399.058 38.4368C400.251 38.8724 400.695 39.7747 400.543 40.6233C400.392 41.4625 399.662 42.2263 398.564 42.4065C398.164 42.4915 397.749 42.4749 397.358 42.3584C396.966 42.2416 396.612 42.0284 396.333 41.7399L396.326 41.7324C396.237 41.6237 396.178 41.496 396.152 41.3606C396.127 41.2383 396.14 41.112 396.188 40.9964C396.236 40.8815 396.317 40.7821 396.422 40.7097C396.532 40.6275 396.665 40.5783 396.804 40.568C396.943 40.5578 397.082 40.5867 397.204 40.6512C397.325 40.7076 397.439 40.7796 397.54 40.8652L397.542 40.8668C397.722 41.0246 397.939 41.0657 398.148 41.0276C398.359 40.989 398.558 40.8688 398.686 40.7094C398.813 40.551 398.864 40.3628 398.804 40.1801C398.743 39.9961 398.56 39.7899 398.157 39.6175C398.052 39.5747 397.943 39.5401 397.829 39.5064C397.799 39.4973 397.767 39.4883 397.736 39.4791C397.652 39.4546 397.566 39.4295 397.481 39.4017C397.423 39.3826 397.365 39.3645 397.307 39.3466C397.151 39.2976 396.998 39.2499 396.851 39.1859C396.531 39.0814 396.255 38.8808 396.063 38.6136C395.871 38.3454 395.774 38.0247 395.787 37.6993C395.788 36.9064 396.309 36.3602 396.968 36.0677Z" fill="#3A3B7B"/>
<path d="M405.286 35.9832C405.159 35.9236 405.018 35.8953 404.877 35.9008C404.735 35.9064 404.597 35.9457 404.476 36.0152C404.355 36.0842 404.254 36.1808 404.181 36.2965C404.115 36.3939 404.068 36.5028 404.046 36.6172C404.023 36.7314 404.023 36.8489 404.047 36.9629C404.071 37.1094 404.097 37.2519 404.123 37.3924C404.166 37.625 404.208 37.8523 404.235 38.0841L404.236 38.09C404.299 38.4534 404.332 38.8211 404.335 39.1895L404.335 39.1947C404.357 39.5925 404.215 39.9826 403.942 40.2822L403.937 40.2875C403.848 40.397 403.729 40.4806 403.594 40.5289C403.458 40.5772 403.311 40.5883 403.169 40.561C403.027 40.5337 402.896 40.469 402.79 40.3741C402.684 40.2793 402.608 40.1577 402.57 40.0237C402.488 39.7413 402.441 39.4507 402.429 39.1579L402.568 37.0355C402.57 37.0078 402.573 36.9794 402.575 36.9506C402.58 36.8862 402.586 36.8205 402.588 36.7593C402.591 36.6692 402.588 36.5765 402.567 36.4888C402.544 36.3991 402.502 36.3139 402.426 36.2412C402.351 36.1694 402.25 36.1163 402.123 36.0802C401.894 36.0164 401.699 36.0184 401.538 36.0843C401.376 36.1503 401.265 36.2727 401.186 36.4141C401.108 36.5543 401.058 36.7202 401.02 36.8865C400.992 37.0099 400.97 37.1394 400.948 37.2627C400.941 37.3051 400.934 37.3468 400.926 37.3873L400.926 37.3885C400.811 38.0646 400.777 38.751 400.824 39.4345C400.833 39.8038 400.913 40.1684 401.061 40.5096C401.228 40.9499 401.529 41.3313 401.926 41.6036C402.324 41.8764 402.799 42.0267 403.288 42.0347C403.777 42.0426 404.257 41.9078 404.664 41.6481C405.071 41.3887 405.386 41.017 405.568 40.5822C405.823 40.0282 405.942 39.4257 405.918 38.8207C405.903 38.379 405.878 37.9339 405.853 37.491C405.841 37.2738 405.828 37.057 405.817 36.8416C405.812 36.6256 405.738 36.4163 405.605 36.2419C405.522 36.1317 405.413 36.0428 405.286 35.9832Z" fill="#3A3B7B"/>
<path d="M409.788 39.3112C409.775 39.3269 409.762 39.3432 409.748 39.3601C409.644 38.7872 409.548 38.2145 409.452 37.6409C409.418 37.4351 409.383 37.2284 409.348 37.0223L409.344 36.9993L409.332 36.9795C409.308 36.9421 409.305 36.9054 409.305 36.8273V36.8182L409.304 36.8093C409.278 36.6478 409.202 36.4976 409.086 36.3782C408.97 36.2592 408.819 36.1763 408.653 36.1403C408.488 36.1012 408.314 36.1098 408.154 36.1652C407.994 36.2203 407.855 36.3195 407.754 36.4503C407.669 36.5506 407.6 36.6619 407.548 36.7808C407.431 37.037 407.312 37.2938 407.193 37.5513L407.191 37.5558C406.895 38.1987 406.596 38.8459 406.306 39.4981L406.305 39.5002C406.127 39.9232 405.98 40.3688 405.833 40.8131C405.804 40.9018 405.775 40.9904 405.745 41.0788C405.692 41.219 405.669 41.368 405.677 41.5168C405.667 41.6501 405.701 41.7831 405.772 41.8977C405.845 42.0147 405.955 42.1067 406.085 42.1609C406.223 42.2191 406.378 42.2314 406.524 42.196C406.671 42.1606 406.8 42.0797 406.893 41.9659C407.012 41.8258 407.114 41.6729 407.197 41.511C407.443 41.0284 407.678 40.54 407.912 40.0537C408.002 39.8656 408.09 39.6972 408.19 39.5137C408.197 39.5363 408.204 39.5584 408.211 39.5805C408.316 40.0234 408.493 40.4477 408.736 40.8378C408.782 40.9204 408.846 40.9926 408.923 41.0494C409.002 41.107 409.092 41.1473 409.189 41.1678C409.285 41.1884 409.385 41.1884 409.481 41.1681C409.578 41.1478 409.669 41.1074 409.747 41.0502L409.903 40.9385L411.11 39.9628L411.038 40.3993C410.94 40.9993 410.843 41.5944 410.74 42.1895C410.672 42.4533 410.672 42.7289 410.74 42.9926C410.769 43.141 410.844 43.2776 410.955 43.385C411.066 43.4934 411.209 43.567 411.365 43.5963C411.521 43.6256 411.682 43.6094 411.828 43.5496C411.972 43.4907 412.094 43.3923 412.18 43.2668C412.379 43.0299 412.503 42.743 412.537 42.4403C412.588 42.0129 412.646 41.5797 412.704 41.1466C412.77 40.6475 412.837 40.1484 412.893 39.6589L412.894 39.6574C412.948 39.1216 412.974 38.5836 412.972 38.0453C412.984 37.8752 412.94 37.7057 412.846 37.5609C412.752 37.4155 412.612 37.3025 412.447 37.2379C412.275 37.1629 412.083 37.1429 411.898 37.1808C411.715 37.2184 411.549 37.3112 411.424 37.4455C411.202 37.6431 410.993 37.8546 410.799 38.0785L410.798 38.08C410.586 38.3329 410.376 38.5908 410.168 38.847C410.041 39.0028 409.914 39.1582 409.788 39.3112Z" fill="#3A3B7B"/>
</g>
<g clip-path="url(#clip4_211_2045)">
<path d="M541.847 25.539C541.847 25.8633 542.113 26.1263 542.441 26.1263H543.036C543.364 26.1263 543.63 25.8633 543.63 25.539C543.63 25.2146 543.364 24.9517 543.036 24.9517H542.441C542.113 24.9517 541.847 25.2146 541.847 25.539Z" fill="#212326"/>
<path d="M524.604 43.7455H527.493L526.652 42.9149C526.429 42.6947 526.126 42.5709 525.811 42.5709H524.604C520.007 42.5709 516.28 38.8897 516.28 34.3486C516.28 29.8075 520.007 26.1263 524.604 26.1263H534.117C538.714 26.1263 542.441 29.8075 542.441 34.3486C542.441 38.8897 538.714 42.5709 534.117 42.5709H530.559C530.086 42.5709 529.632 42.3853 529.297 42.0549L528.312 41.0818C527.755 40.5311 526.999 40.2217 526.21 40.2217H524.604C521.321 40.2217 518.659 37.5922 518.659 34.3486C518.659 31.105 521.321 28.4755 524.604 28.4755H534.117C537.401 28.4755 540.063 31.105 540.063 34.3486C540.063 37.5922 537.401 40.2217 534.117 40.2217H531.832C531.359 40.2217 530.905 40.036 530.571 39.7057L529.586 38.7326C529.028 38.1818 528.272 37.8724 527.484 37.8724H524.604C522.634 37.8724 521.037 36.2948 521.037 34.3486C521.037 32.4024 522.634 30.8247 524.604 30.8247H534.117C536.087 30.8247 537.685 32.4024 537.685 34.3486C537.685 36.271 536.126 37.8339 534.189 37.8717L534.189 37.8724H533.319C532.846 37.8724 532.392 37.6868 532.057 37.3564L531.072 36.3833C530.615 35.9314 530.024 35.642 529.391 35.5527L529.361 35.5232H524.604C523.948 35.5232 523.415 34.9973 523.415 34.3486C523.415 33.6999 523.948 33.174 524.604 33.174H534.117C534.774 33.174 535.306 33.6999 535.306 34.3486C535.306 34.9973 534.774 35.5232 534.117 35.5232H531.739L532.58 36.3538C532.803 36.5741 533.105 36.6978 533.421 36.6978H534.117C535.431 36.6978 536.495 35.646 536.495 34.3486C536.495 33.0512 535.431 31.9994 534.117 31.9994H524.604C523.291 31.9994 522.226 33.0512 522.226 34.3486C522.226 35.646 523.291 36.6978 524.604 36.6978H528.97C529.443 36.6978 529.897 36.8835 530.231 37.2139L531.217 38.187C531.774 38.7377 532.53 39.0471 533.319 39.0471H534.414V39.038C536.903 38.8865 538.874 36.8448 538.874 34.3486C538.874 31.7537 536.744 29.6501 534.117 29.6501H524.604C521.977 29.6501 519.848 31.7537 519.848 34.3486C519.848 36.9435 521.977 39.0471 524.604 39.0471H527.484C527.957 39.0471 528.411 39.2327 528.745 39.5631L529.73 40.5362C530.288 41.0869 531.044 41.3963 531.832 41.3963H534.117C538.058 41.3963 541.252 38.2409 541.252 34.3486C541.252 30.4562 538.058 27.3009 534.117 27.3009H524.604C520.664 27.3009 517.47 30.4562 517.47 34.3486C517.47 38.2409 520.664 41.3963 524.604 41.3963H526.21C526.683 41.3963 527.137 41.5819 527.471 41.9123L528.457 42.8854C529.014 43.4361 529.77 43.7455 530.559 43.7455H534.117C539.371 43.7455 543.63 39.5384 543.63 34.3486C543.63 29.1588 539.371 24.9517 534.117 24.9517L524.604 24.9517C519.35 24.9517 515.091 29.1588 515.091 34.3486C515.091 39.5384 519.35 43.7455 524.604 43.7455Z" fill="#212326"/>
</g>
<g clip-path="url(#clip5_211_2045)">
<path d="M647.583 27.04C646.17 27.04 644.814 27.6016 643.815 28.6011L640.553 31.8631C639.553 32.8626 638.992 34.2182 638.992 35.6317C638.992 38.5753 641.378 40.9614 644.321 40.9614C645.735 40.9614 647.091 40.3999 648.09 39.4004L650.346 37.144C650.346 37.144 650.346 37.1441 650.346 37.144L656.921 30.5699C657.398 30.0925 658.045 29.8243 658.72 29.8243C659.851 29.8243 660.809 30.5609 661.141 31.5803L663.216 29.5055C662.269 28.023 660.61 27.04 658.72 27.04C657.307 27.04 655.951 27.6016 654.952 28.6011L646.121 37.4316C645.644 37.909 644.997 38.1772 644.321 38.1772C642.916 38.1772 641.776 37.0375 641.776 35.6317C641.776 34.9566 642.044 34.3092 642.522 33.8318L645.783 30.5699C646.261 30.0925 646.908 29.8243 647.583 29.8243C648.714 29.8243 649.672 30.561 650.004 31.5804L652.079 29.5055C651.132 28.0231 649.473 27.04 647.583 27.04Z" fill="#394149"/>
<path d="M657.259 37.4316C656.781 37.909 656.134 38.1772 655.459 38.1772C654.329 38.1772 653.37 37.4407 653.038 36.4215L650.963 38.4963C651.91 39.9785 653.57 40.9614 655.459 40.9614C656.872 40.9614 658.228 40.3999 659.227 39.4004L668.058 30.5699C668.535 30.0925 669.183 29.8243 669.858 29.8243C671.264 29.8243 672.403 30.9639 672.403 32.3698C672.403 33.0448 672.135 33.6923 671.658 34.1696L668.396 37.4316C667.918 37.909 667.271 38.1772 666.596 38.1772C665.466 38.1772 664.507 37.4406 664.175 36.4213L662.1 38.4961C663.047 39.9785 664.707 40.9614 666.596 40.9614C668.009 40.9614 669.365 40.3999 670.364 39.4004L673.626 36.1384C674.626 35.1389 675.187 33.7833 675.187 32.3698C675.187 29.4262 672.801 27.04 669.858 27.04C668.444 27.04 667.089 27.6016 666.089 28.6011L657.259 37.4316Z" fill="#394149"/>
</g>
<g clip-path="url(#clip6_211_2045)">
<path d="M804.653 30.9864C804.657 30.9574 804.657 30.928 804.653 30.899C804.657 30.8753 804.657 30.8512 804.653 30.8275L804.369 28.7862C804.328 28.542 804.219 28.3137 804.053 28.1269L804.005 28.0713L803.916 27.984L799.006 23.8378L799.144 23.9728C799.031 23.8406 798.889 23.7349 798.73 23.6634C798.57 23.592 798.396 23.5565 798.22 23.5598H796.729C796.487 23.5551 796.25 23.6306 796.057 23.7742C795.854 23.6315 795.61 23.5563 795.36 23.5598H793.869C793.674 23.5567 793.481 23.6042 793.31 23.6977C793.139 23.7911 792.997 23.9272 792.897 24.0919C792.743 24.3273 792.685 24.6109 792.735 24.8862L792.921 26.173C792.798 26.1044 792.658 26.0688 792.516 26.0697H785.297C785.038 26.0713 784.785 26.1458 784.568 26.2842C784.358 26.413 784.19 26.5975 784.082 26.8164L783.523 26.3477C783.303 26.1481 783.013 26.04 782.713 26.0459H771.386C771.126 26.0505 770.872 26.1217 770.649 26.2524C770.344 26.4276 770.12 26.7125 770.025 27.0467L766.428 38.8419C766.361 39.0363 766.354 39.2459 766.409 39.4439C766.464 39.642 766.577 39.8196 766.736 39.9539C766.777 39.9882 766.82 40.02 766.865 40.0492C766.865 40.0492 766.792 40.0015 766.752 39.9619L771.662 44.116C771.869 44.3035 772.141 44.4082 772.423 44.4099H783.839C784.1 44.4032 784.354 44.3293 784.576 44.1954C784.702 44.1281 784.814 44.0393 784.908 43.9333L784.949 43.8777L785.014 43.7983L785.062 43.7109L785.597 44.1637C785.802 44.3437 786.067 44.4427 786.342 44.4417H797.782C798.043 44.4331 798.297 44.3593 798.52 44.2272C798.643 44.1557 798.754 44.0674 798.852 43.9651L798.892 43.9095L798.957 43.8301C798.992 43.7798 799.022 43.7267 799.046 43.6712C799.073 43.623 799.094 43.5725 799.111 43.5203L802.392 32.7497V32.6544C802.396 32.6174 802.396 32.5802 802.392 32.5432V32.4717C802.396 32.448 802.396 32.4239 802.392 32.4002C802.396 32.35 802.396 32.2996 802.392 32.2493H803.446C803.537 32.2575 803.63 32.2575 803.721 32.2493H803.794C803.853 32.232 803.91 32.2079 803.964 32.1778H804.045L804.191 32.0666L804.256 32.019L804.369 31.876V31.8284L804.45 31.6933C804.446 31.667 804.446 31.6402 804.45 31.6139C804.446 31.601 804.446 31.5871 804.45 31.5742C804.468 31.5276 804.481 31.4798 804.491 31.4312C804.487 31.4155 804.487 31.3992 804.491 31.3835C804.487 31.3599 804.487 31.3357 804.491 31.312C804.491 31.312 804.653 31.0023 804.653 30.9864Z" fill="black"/>
<path d="M783.045 26.9514C783.088 26.9896 783.118 27.0397 783.131 27.0951C783.144 27.1505 783.139 27.2085 783.118 27.2612L779.529 39.0485C779.483 39.1771 779.391 39.2847 779.269 39.3503C779.17 39.4152 779.056 39.4535 778.937 39.4615H767.529C767.432 39.4569 767.34 39.4173 767.27 39.3503C767.229 39.3128 767.2 39.264 767.187 39.2103C767.174 39.1565 767.177 39.1002 767.197 39.0485L770.795 27.2612C770.836 27.1309 770.926 27.0204 771.046 26.9514C771.146 26.8912 771.26 26.8558 771.378 26.8482H782.785C782.882 26.8491 782.975 26.886 783.045 26.9514ZM777.09 36.6735L779.237 29.6361H773.225L771.086 36.6735H777.09ZM793.934 27.0706C793.973 27.1149 794.021 27.1501 794.076 27.1735C794.131 27.1968 794.19 27.2078 794.25 27.2056H795.732C795.789 27.2061 795.844 27.1926 795.894 27.1662C795.944 27.1398 795.986 27.1014 796.016 27.0547C796.042 27.0182 796.061 26.9769 796.071 26.9332C796.08 26.8896 796.081 26.8444 796.073 26.8005L795.781 24.7036C795.753 24.6065 795.703 24.5169 795.635 24.4415C795.596 24.3971 795.548 24.362 795.493 24.3386C795.438 24.3152 795.379 24.3042 795.319 24.3064H793.837C793.78 24.3059 793.724 24.3195 793.675 24.3459C793.625 24.3723 793.583 24.4107 793.553 24.4574C793.496 24.5686 793.472 24.64 793.496 24.7036L793.796 26.8005C793.811 26.9026 793.86 26.9972 793.934 27.0706ZM798.641 24.6877C798.613 24.5906 798.563 24.501 798.495 24.4256C798.458 24.3814 798.411 24.3462 798.357 24.3228C798.304 24.2994 798.246 24.2884 798.187 24.2906H796.697C796.641 24.289 796.586 24.3022 796.538 24.3288C796.489 24.3553 796.449 24.3943 796.421 24.4415C796.367 24.5119 796.344 24.6005 796.356 24.6877L796.656 26.7846C796.675 26.8856 796.723 26.9793 796.794 27.0547C796.833 27.0982 796.882 27.1327 796.937 27.156C796.991 27.1793 797.05 27.1908 797.11 27.1897H798.601C798.656 27.1904 798.71 27.1769 798.759 27.1504C798.807 27.1239 798.848 27.0854 798.876 27.0388C798.904 27.0033 798.924 26.962 798.934 26.918C798.944 26.874 798.943 26.8285 798.933 26.7846L798.641 24.6877ZM792.629 27.8649L792.483 26.8323H785.297C785.184 26.8384 785.075 26.874 784.981 26.9355C784.921 26.9674 784.869 27.0117 784.829 27.0651C784.788 27.1186 784.76 27.1801 784.746 27.2453L784.147 29.2151C784.123 29.2644 784.114 29.3196 784.123 29.3735C784.132 29.4273 784.157 29.4774 784.195 29.517C784.264 29.5799 784.353 29.6166 784.446 29.6202H793.18L791.033 36.6577H782.324C782.211 36.6602 782.102 36.6932 782.008 36.7529C781.893 36.8243 781.809 36.9346 781.773 37.0627L781.165 39.0326C781.145 39.0831 781.14 39.138 781.15 39.1913C781.16 39.2446 781.185 39.2941 781.222 39.3344C781.288 39.4016 781.378 39.4414 781.473 39.4456H792.913C793.031 39.4356 793.145 39.3974 793.245 39.3344C793.365 39.2685 793.454 39.1607 793.496 39.0326L796.786 28.262H793.083C793.024 28.2631 792.966 28.2524 792.912 28.2306C792.857 28.2087 792.808 28.1762 792.767 28.1349C792.7 28.0629 792.653 27.9755 792.629 27.8807V27.8649Z" fill="white"/>
</g>
<defs>
<clipPath id="clip0_211_2045">
<rect width="27.8428" height="27.8428" fill="white" transform="translate(2.78418 20.1858)"/>
</clipPath>
<clipPath id="clip1_211_2045">
<rect width="27.8428" height="19.4899" fill="white" transform="translate(130.861 24.2556)"/>
</clipPath>
<clipPath id="clip2_211_2045">
<rect width="38.2838" height="20.8821" fill="white" transform="translate(254.065 23.5596)"/>
</clipPath>
<clipPath id="clip3_211_2045">
<rect width="32.7153" height="20.186" fill="white" transform="translate(384.927 24.2556)"/>
</clipPath>
<clipPath id="clip4_211_2045">
<rect width="28.5388" height="18.7939" fill="white" transform="translate(515.091 24.9517)"/>
</clipPath>
<clipPath id="clip5_211_2045">
<rect width="36.1956" height="13.9214" fill="white" transform="translate(638.992 27.04)"/>
</clipPath>
<clipPath id="clip6_211_2045">
<rect width="38.2838" height="20.8821" fill="white" transform="translate(766.372 23.5596)"/>
</clipPath>
</defs>
</svg>
