<svg width="108" height="17" viewBox="0 0 108 17" fill="none" xmlns="http://www.w3.org/2000/svg">
<path d="M13.0767 9.14203L9.32426 15.5688L5.57183 9.14203H13.0767ZM14.082 8.56763H4.5625L9.32426 16.7055L14.082 8.56763Z" fill="#263238"/>
<path d="M19.6007 1.14878L23.3531 7.57551H15.8482L19.6007 1.14878ZM19.6007 0L14.8389 8.13785H24.3624L19.6007 0Z" fill="#263238"/>
<path d="M0 0L3.99259 7.19795L8.35551 0.180742L0 0Z" fill="#4CAF4F"/>
<path d="M9.32449 0.630371L13.5124 7.78816H5.12842L9.32449 0.630371Z" fill="#4CAF4F"/>
<path d="M14.5911 9.35083L18.7831 16.7055H10.1997L14.4609 9.35083H14.5911Z" fill="#4CAF4F"/>
<path d="M15.498 8.90503L19.6005 16.1472L23.7599 8.90503H15.498Z" fill="#4CAF4F"/>
<path d="M41.7871 1.16162V15.3361H39.1986L33.0318 6.41477H32.928V15.3361H29.9312V1.16162H32.5612L38.6795 10.0761H38.8041V1.16162H41.7871Z" fill="#263238"/>
<path d="M49.0525 15.5438C47.959 15.5438 47.0177 15.3223 46.2287 14.8793C45.4443 14.4318 44.8399 13.7996 44.4154 12.9829C43.9909 12.1616 43.7786 11.1904 43.7786 10.0691C43.7786 8.9756 43.9909 8.01586 44.4154 7.18994C44.8399 6.36402 45.4374 5.72035 46.208 5.25894C46.9831 4.79753 47.8921 4.56682 48.9349 4.56682C49.6362 4.56682 50.2891 4.67987 50.8936 4.90596C51.5026 5.12744 52.0333 5.46196 52.4854 5.90953C52.9422 6.35709 53.2975 6.92001 53.5513 7.59829C53.8051 8.27194 53.932 9.06095 53.932 9.96532V10.7751H44.9552V8.94791H51.1566C51.1566 8.52341 51.0643 8.14736 50.8797 7.81976C50.6952 7.49216 50.4391 7.23608 50.1115 7.05152C49.7885 6.86234 49.4124 6.76775 48.9833 6.76775C48.5358 6.76775 48.139 6.87157 47.7929 7.0792C47.4515 7.28222 47.1838 7.55676 46.99 7.90282C46.7963 8.24426 46.6971 8.62492 46.6924 9.04481V10.782C46.6924 11.308 46.7893 11.7625 46.9831 12.1455C47.1815 12.5284 47.4607 12.8238 47.8206 13.0314C48.1805 13.239 48.6073 13.3428 49.101 13.3428C49.4286 13.3428 49.7285 13.2967 50.0007 13.2044C50.273 13.1121 50.506 12.9737 50.6998 12.7891C50.8936 12.6046 51.0412 12.3785 51.1427 12.1109L53.8697 12.2908C53.7312 12.946 53.4475 13.5182 53.0184 14.0073C52.5939 14.4917 52.0448 14.8701 51.3711 15.1423C50.7021 15.41 49.9292 15.5438 49.0525 15.5438Z" fill="#263238"/>
<path d="M58.1296 4.70525L60.0814 8.4219L62.0816 4.70525H65.1061L62.0262 10.0207L65.1892 15.3361H62.1785L60.0814 11.661L58.0189 15.3361H54.9736L58.1296 10.0207L55.0843 4.70525H58.1296Z" fill="#263238"/>
<path d="M71.2798 15.5438C70.1909 15.5438 69.2542 15.3131 68.4698 14.8516C67.69 14.3856 67.0902 13.7396 66.6703 12.9137C66.2551 12.0878 66.0474 11.1373 66.0474 10.0622C66.0474 8.97329 66.2574 8.01817 66.6772 7.19686C67.1017 6.37094 67.7039 5.72727 68.4837 5.26586C69.2634 4.79984 70.1909 4.56682 71.266 4.56682C72.1934 4.56682 73.0055 4.73524 73.7022 5.07207C74.3989 5.4089 74.9503 5.88184 75.3564 6.4909C75.7624 7.09996 75.9862 7.81515 76.0277 8.63646H73.2454C73.167 8.10584 72.9593 7.67903 72.6225 7.35605C72.2903 7.02845 71.8543 6.86465 71.3144 6.86465C70.8576 6.86465 70.4585 6.98923 70.1171 7.23839C69.7802 7.48293 69.5172 7.84053 69.328 8.31117C69.1389 8.7818 69.0443 9.35164 69.0443 10.0207C69.0443 10.699 69.1366 11.2757 69.3211 11.751C69.5103 12.2262 69.7756 12.5884 70.1171 12.8376C70.4585 13.0868 70.8576 13.2113 71.3144 13.2113C71.6512 13.2113 71.9535 13.1421 72.2211 13.0037C72.4933 12.8653 72.7171 12.6646 72.8924 12.4016C73.0724 12.1339 73.19 11.8133 73.2454 11.4395H76.0277C75.9816 12.2516 75.7601 12.9668 75.3633 13.5851C74.9711 14.1988 74.4289 14.6786 73.7368 15.0247C73.0447 15.3707 72.2257 15.5438 71.2798 15.5438Z" fill="#263238"/>
<path d="M82.7603 15.5438C81.6667 15.5438 80.7254 15.3223 79.9364 14.8793C79.152 14.4318 78.5476 13.7996 78.1231 12.9829C77.6986 12.1616 77.4863 11.1904 77.4863 10.0691C77.4863 8.9756 77.6986 8.01586 78.1231 7.18994C78.5476 6.36402 79.1451 5.72035 79.9157 5.25894C80.6908 4.79753 81.5998 4.56682 82.6426 4.56682C83.3439 4.56682 83.9968 4.67987 84.6013 4.90596C85.2103 5.12744 85.741 5.46196 86.1931 5.90953C86.6499 6.35709 87.0052 6.92001 87.259 7.59829C87.5128 8.27194 87.6397 9.06095 87.6397 9.96532V10.7751H78.6629V8.94791H84.8643C84.8643 8.52341 84.772 8.14736 84.5874 7.81976C84.4029 7.49216 84.1468 7.23608 83.8192 7.05152C83.4962 6.86234 83.1202 6.76775 82.691 6.76775C82.2435 6.76775 81.8467 6.87157 81.5006 7.0792C81.1592 7.28222 80.8915 7.55676 80.6978 7.90282C80.504 8.24426 80.4048 8.62492 80.4001 9.04481V10.782C80.4001 11.308 80.497 11.7625 80.6908 12.1455C80.8892 12.5284 81.1684 12.8238 81.5283 13.0314C81.8882 13.239 82.315 13.3428 82.8087 13.3428C83.1363 13.3428 83.4362 13.2967 83.7085 13.2044C83.9807 13.1121 84.2137 12.9737 84.4075 12.7891C84.6013 12.6046 84.7489 12.3785 84.8504 12.1109L87.5774 12.2908C87.4389 12.946 87.1552 13.5182 86.7261 14.0073C86.3016 14.4917 85.7525 14.8701 85.0788 15.1423C84.4098 15.41 83.6369 15.5438 82.7603 15.5438Z" fill="#263238"/>
<path d="M92.5121 9.19015V15.3361H89.5637V4.70525H92.3737V6.58088H92.4983C92.7336 5.96259 93.1281 5.47349 93.6818 5.11359C94.2355 4.74908 94.9069 4.56682 95.6959 4.56682C96.4341 4.56682 97.0778 4.72832 97.6269 5.05131C98.176 5.37429 98.6028 5.8357 98.9073 6.43553C99.2118 7.03075 99.3641 7.74132 99.3641 8.56725V15.3361H96.4157V9.09325C96.4203 8.44267 96.2542 7.93512 95.9174 7.5706C95.5805 7.20147 95.1168 7.01691 94.5262 7.01691C94.1294 7.01691 93.7787 7.10227 93.4742 7.27299C93.1743 7.44371 92.939 7.69288 92.7682 8.02048C92.6021 8.34346 92.5168 8.73335 92.5121 9.19015Z" fill="#263238"/>
<path d="M107.342 4.70525V6.92001H100.94V4.70525H107.342ZM102.394 2.15827H105.342V12.0693C105.342 12.3416 105.384 12.5538 105.467 12.7061C105.55 12.8537 105.665 12.9576 105.813 13.0175C105.965 13.0775 106.14 13.1075 106.339 13.1075C106.477 13.1075 106.616 13.096 106.754 13.0729C106.893 13.0452 106.999 13.0245 107.073 13.0106L107.536 15.2046C107.389 15.2508 107.181 15.3038 106.913 15.3638C106.646 15.4284 106.32 15.4676 105.937 15.4815C105.227 15.5092 104.604 15.4146 104.069 15.1977C103.538 14.9808 103.125 14.644 102.83 14.1872C102.535 13.7304 102.389 13.1537 102.394 12.4569V2.15827Z" fill="#263238"/>
</svg>
