<svg width="39" height="21" viewBox="0 0 39 21" fill="none" xmlns="http://www.w3.org/2000/svg">
<g clip-path="url(#clip0_211_2518)">
<path d="M38.2808 7.42682C38.2848 7.39779 38.2848 7.36845 38.2808 7.33943C38.2846 7.31578 38.2846 7.29166 38.2808 7.26796L37.9972 5.22663C37.9563 4.98241 37.8469 4.75415 37.6813 4.56737L37.6326 4.51177L37.5436 4.42439L32.6338 0.278202L32.7715 0.413241C32.6588 0.281069 32.5174 0.175349 32.3575 0.103869C32.1977 0.0323883 32.0235 -0.00303662 31.8479 0.000207473H30.3571C30.1147 -0.0045012 29.8778 0.0710586 29.6846 0.214669C29.4818 0.0719236 29.2376 -0.00324966 28.9879 0.000207473H27.4971C27.3016 -0.00290242 27.1087 0.0446692 26.938 0.13812C26.7673 0.23157 26.6248 0.367582 26.5249 0.532378C26.3709 0.767756 26.3131 1.05135 26.3628 1.32667L26.5492 2.61341C26.4257 2.54481 26.286 2.50921 26.1441 2.51017H18.9252C18.6662 2.51176 18.4132 2.58618 18.196 2.72462C17.9861 2.85347 17.8175 3.03797 17.7099 3.25679L17.1509 2.78816C16.9309 2.58857 16.6404 2.48039 16.3407 2.48634H5.01416C4.75424 2.49098 4.50009 2.56216 4.2769 2.69285C3.97156 2.86806 3.74778 3.15295 3.65304 3.48714L0.0557668 15.2823C-0.011447 15.4767 -0.018059 15.6863 0.0367777 15.8844C0.0916142 16.0824 0.205416 16.26 0.363645 16.3944C0.404874 16.4286 0.448165 16.4605 0.493279 16.4896C0.493279 16.4896 0.42035 16.442 0.37984 16.4023L5.28965 20.5564C5.49734 20.7439 5.76889 20.8487 6.05118 20.8503H17.4669C17.7276 20.8437 17.9819 20.7697 18.2042 20.6358C18.3299 20.5685 18.4423 20.4797 18.5363 20.3737L18.5769 20.3181L18.6417 20.2387L18.6903 20.1513L19.225 20.6041C19.4297 20.7841 19.6954 20.8831 19.9704 20.8821H31.4103C31.6708 20.8736 31.9246 20.7998 32.1476 20.6676C32.2705 20.5962 32.3823 20.5079 32.4798 20.4055L32.5203 20.3499L32.5851 20.2705C32.6196 20.2202 32.6495 20.1671 32.6742 20.1116C32.7007 20.0635 32.7224 20.0129 32.739 19.9607L36.0203 9.19015V9.09483C36.0244 9.05787 36.0244 9.02059 36.0203 8.98363V8.91216C36.0243 8.88846 36.0243 8.86434 36.0203 8.84064C36.024 8.79042 36.024 8.73999 36.0203 8.68971H37.0736C37.1652 8.69796 37.2574 8.69796 37.3491 8.68971H37.422C37.4813 8.67238 37.5384 8.64837 37.5922 8.61825H37.6732L37.819 8.50705L37.8838 8.45938L37.9972 8.31639V8.26878L38.0783 8.13373C38.0737 8.10747 38.0737 8.08058 38.0783 8.05432C38.074 8.04143 38.074 8.02749 38.0783 8.0146C38.0955 7.96803 38.109 7.92021 38.1188 7.87161C38.115 7.85594 38.115 7.8396 38.1188 7.82394C38.1148 7.80029 38.1148 7.77612 38.1188 7.75247C38.1188 7.75247 38.2808 7.44269 38.2808 7.42682Z" fill="black"/>
<path d="M16.6727 3.39186C16.7157 3.42999 16.7457 3.48013 16.7587 3.53552C16.7718 3.59091 16.7672 3.64888 16.7456 3.70163L13.1564 15.4889C13.1112 15.6176 13.0188 15.7252 12.8972 15.7907C12.7982 15.8556 12.6837 15.8939 12.565 15.9019H1.15743C1.06 15.8973 0.967709 15.8578 0.89816 15.7907C0.856787 15.7532 0.82775 15.7044 0.81476 15.6507C0.80177 15.597 0.805428 15.5406 0.825245 15.4889L4.42252 3.70163C4.46396 3.57131 4.55352 3.46085 4.67367 3.39186C4.77426 3.33162 4.88824 3.29619 5.00585 3.2886H16.4134C16.5101 3.28951 16.6027 3.32643 16.6727 3.39186ZM10.7177 13.114L12.8647 6.07655H6.85312L4.71417 13.114H10.7177ZM27.5617 3.511C27.6006 3.55534 27.6493 3.5905 27.704 3.61388C27.7587 3.63726 27.818 3.64825 27.8777 3.64602H29.3603C29.4168 3.64657 29.4724 3.63299 29.5221 3.60659C29.5717 3.58018 29.6136 3.54181 29.6439 3.49511C29.6702 3.45863 29.6888 3.41733 29.6986 3.37366C29.7083 3.33001 29.709 3.28487 29.7006 3.24094L29.4089 1.14402C29.3812 1.04697 29.3313 0.957352 29.2631 0.881899C29.2242 0.837556 29.1756 0.802391 29.1208 0.779013C29.0661 0.755636 29.0067 0.744652 28.9471 0.746871H27.4645C27.408 0.746333 27.3524 0.759906 27.3027 0.786312C27.2531 0.812717 27.2112 0.851083 27.1809 0.897791C27.1242 1.00899 27.0999 1.08047 27.1242 1.14402L27.424 3.24094C27.4393 3.34305 27.4876 3.43766 27.5617 3.511ZM32.269 1.12813C32.2411 1.03108 32.1913 0.94146 32.1231 0.866013C32.0858 0.821832 32.0386 0.786677 31.9852 0.763258C31.9318 0.739844 31.8737 0.728797 31.8152 0.730985H30.3245C30.2689 0.729434 30.214 0.742642 30.1655 0.769209C30.117 0.795776 30.0768 0.834722 30.049 0.881899C29.9951 0.952366 29.9718 1.04088 29.9842 1.12813L30.2839 3.22505C30.3028 3.32608 30.3505 3.41976 30.4217 3.49511C30.4613 3.53859 30.5101 3.57316 30.5646 3.59647C30.6192 3.61977 30.6782 3.63126 30.7376 3.63013H32.2284C32.2838 3.63085 32.3384 3.6173 32.3867 3.59081C32.4351 3.56432 32.4755 3.52585 32.5039 3.47923C32.5321 3.44369 32.5518 3.40241 32.5616 3.35843C32.5714 3.31445 32.5711 3.26888 32.5606 3.22505L32.269 1.12813ZM26.2573 4.30529L26.1114 3.27271H18.925C18.8122 3.27881 18.703 3.31447 18.609 3.37597C18.5494 3.40787 18.4974 3.45209 18.4568 3.50557C18.4163 3.55905 18.3881 3.62052 18.3741 3.68574L17.7745 5.65556C17.7506 5.70479 17.7424 5.76003 17.7511 5.8139C17.7598 5.86778 17.7849 5.91779 17.8231 5.95742C17.8915 6.02037 17.9806 6.05708 18.0743 6.06068H26.8082L24.6612 13.0981H15.9516C15.8393 13.1006 15.7299 13.1336 15.6356 13.1934C15.5211 13.2647 15.4374 13.375 15.4007 13.5032L14.793 15.473C14.7732 15.5236 14.768 15.5785 14.778 15.6317C14.788 15.685 14.8128 15.7345 14.8497 15.7748C14.9159 15.842 15.0058 15.8818 15.1009 15.886H26.5408C26.6591 15.876 26.7732 15.8379 26.873 15.7748C26.9926 15.7089 27.0824 15.6011 27.1242 15.473L30.4136 4.70243H26.711C26.6522 4.70357 26.5939 4.69287 26.5396 4.67102C26.4852 4.64916 26.436 4.61659 26.395 4.57534C26.328 4.50331 26.2807 4.4159 26.2573 4.32117V4.30529Z" fill="white"/>
</g>
<defs>
<clipPath id="clip0_211_2518">
<rect width="38.2838" height="20.8821" fill="white"/>
</clipPath>
</defs>
</svg>
